<svg width="50" height="50" viewBox="0 0 50 50" fill="none" xmlns="http://www.w3.org/2000/svg">
<g clip-path="url(#clip0_38:145)">
<path d="M42.3282 9.08443C39.086 7.59651 35.6649 6.53456 32.15 5.92505C32.1182 5.91969 32.0855 5.92432 32.0564 5.93831C32.0273 5.9523 32.0032 5.97496 31.9875 6.00318C31.5469 6.78443 31.0594 7.8063 30.7188 8.6063C26.9301 8.03133 23.0763 8.03133 19.2875 8.6063C18.9076 7.71511 18.4777 6.84603 18 6.00318C17.984 5.97527 17.9599 5.95287 17.9309 5.93893C17.9019 5.92498 17.8693 5.92015 17.8375 5.92505C14.3219 6.5313 10.9 7.5938 7.65941 9.08443C7.63168 9.09501 7.60849 9.11489 7.59379 9.14068C1.11254 18.825 -0.665586 28.2719 0.20629 37.6C0.209415 37.6438 0.23754 37.6875 0.271915 37.7157C4.04605 40.5113 8.26751 42.6458 12.7563 44.0282C12.788 44.0382 12.822 44.0378 12.8535 44.0271C12.885 44.0164 12.9122 43.996 12.9313 43.9688C13.8938 42.6563 14.75 41.2719 15.4875 39.8157C15.5029 39.7857 15.5082 39.7515 15.5025 39.7183C15.4969 39.6851 15.4807 39.6545 15.4563 39.6313C15.4401 39.616 15.421 39.6043 15.4 39.5969C14.0537 39.0795 12.7497 38.4578 11.5 37.7375C11.4651 37.7178 11.4392 37.6853 11.4275 37.6469C11.4159 37.6085 11.4195 37.5671 11.4375 37.5313C11.4482 37.508 11.4643 37.4877 11.4844 37.4719C11.7469 37.275 12.0094 37.0688 12.2594 36.8625C12.2815 36.8448 12.308 36.8334 12.3361 36.8295C12.3641 36.8257 12.3927 36.8295 12.4188 36.8407C20.6032 40.5782 29.4625 40.5782 37.5469 36.8407C37.5739 36.829 37.6036 36.8248 37.6328 36.8287C37.6619 36.8325 37.6895 36.8442 37.7125 36.8625C37.9625 37.0688 38.225 37.275 38.4875 37.4719C38.5088 37.4875 38.5259 37.508 38.5373 37.5318C38.5486 37.5556 38.5539 37.5818 38.5527 37.6081C38.5515 37.6344 38.5437 37.66 38.5302 37.6826C38.5166 37.7052 38.4977 37.7241 38.475 37.7375C37.2282 38.4644 35.9226 39.0853 34.5719 39.5938C34.5504 39.6016 34.5308 39.614 34.5146 39.6302C34.4984 39.6464 34.486 39.666 34.4782 39.6875C34.4709 39.7084 34.468 39.7305 34.4697 39.7526C34.4713 39.7746 34.4774 39.7961 34.4875 39.8157C35.2375 41.2688 36.0969 42.6563 37.0407 43.9688C37.0597 43.996 37.087 44.0164 37.1184 44.0271C37.1499 44.0378 37.184 44.0382 37.2157 44.0282C41.7119 42.6501 45.9403 40.5154 49.7188 37.7157C49.7377 37.7026 49.7534 37.6854 49.7648 37.6654C49.7762 37.6453 49.7829 37.623 49.7844 37.6C50.8282 26.8157 48.0375 17.4469 42.3907 9.1438C42.385 9.13009 42.3765 9.11772 42.3657 9.10749C42.3549 9.09726 42.3422 9.08941 42.3282 9.08443ZM16.7094 31.9188C14.2438 31.9188 12.2157 29.6563 12.2157 26.8813C12.2157 24.1032 14.2063 21.8407 16.7094 21.8407C19.2313 21.8407 21.2407 24.1219 21.2032 26.8813C21.2032 29.6563 19.2125 31.9188 16.7094 31.9188ZM33.3219 31.9188C30.8594 31.9188 28.8282 29.6563 28.8282 26.8813C28.8282 24.1032 30.8188 21.8407 33.3219 21.8407C35.8438 21.8407 37.8563 24.1219 37.8157 26.8813C37.8157 29.6563 35.8438 31.9188 33.3219 31.9188Z" fill="white"/>
</g>
<defs>
<clipPath id="clip0_38:145">
<rect width="50" height="50" fill="white"/>
</clipPath>
</defs>
</svg>
