<svg width="24" height="24" viewBox="0 0 24 24" fill="none" xmlns="http://www.w3.org/2000/svg">
<path d="M1.25 12C1.25 6.06307 6.06307 1.25 12 1.25C17.9369 1.25 22.75 6.06307 22.75 12C22.75 17.9369 17.9369 22.75 12 22.75C6.06307 22.75 1.25 17.9369 1.25 12ZM8 10.75C7.66848 10.75 7.35054 10.8817 7.11612 11.1161C6.8817 11.3505 6.75 11.6685 6.75 12C6.75 12.3315 6.8817 12.6495 7.11612 12.8839C7.35054 13.1183 7.66848 13.25 8 13.25H16C16.3315 13.25 16.6495 13.1183 16.8839 12.8839C17.1183 12.6495 17.25 12.3315 17.25 12C17.25 11.6685 17.1183 11.3505 16.8839 11.1161C16.6495 10.8817 16.3315 10.75 16 10.75H8Z" fill="#303030" stroke="#EE1C25" stroke-width="0.5"/>
</svg>
