<svg width="396" height="31" viewBox="0 0 396 31" fill="none" xmlns="http://www.w3.org/2000/svg">
<path d="M31.616 31H0.816V0.199998H31.616V4.6H9.616V13.4H27.216V17.8H9.616V26.6H31.616V31ZM68.0535 31H59.2535V26.6H54.8535V22.2H50.4535V26.6H46.0535V31H37.2535V22.2H41.6535V17.8H46.0535V13.4H41.6535V9H37.2535V0.199998H46.0535V4.6H50.4535V9H54.8535V4.6H59.2535V0.199998H68.0535V9H63.6535V13.4H59.2535V17.8H63.6535V22.2H68.0535V31ZM104.491 17.8H100.091V22.2H82.491V31H73.691V0.199998H100.091V4.6H104.491V17.8ZM95.691 17.8V4.6H82.491V17.8H95.691ZM140.929 31H132.129V22.2H118.928V31H110.129V9H114.529V4.6H118.928V0.199998H132.129V4.6H136.529V9H140.929V31ZM132.129 17.8V9H127.729V4.6H123.329V9H118.928V17.8H132.129ZM177.366 31H168.566V26.6H164.166V22.2H159.766V17.8H155.366V31H146.566V0.199998H155.366V4.6H159.766V9H164.166V13.4H168.566V0.199998H177.366V31ZM213.804 22.2H209.404V26.6H205.004V31H183.004V0.199998H205.004V4.6H209.404V9H213.804V22.2ZM205.004 22.2V9H200.604V4.6H191.803V26.6H200.604V22.2H205.004ZM250.241 31H241.441V22.2H228.241V31H219.441V9H223.841V4.6H228.241V0.199998H241.441V4.6H245.841V9H250.241V31ZM241.441 17.8V9H237.041V4.6H232.641V9H228.241V17.8H241.441ZM286.679 26.6H282.279V31H255.879V0.199998H282.279V4.6H286.679V13.4H282.279V17.8H286.679V26.6ZM277.879 13.4V4.6H264.678V13.4H277.879ZM277.879 26.6V17.8H264.678V26.6H277.879ZM323.116 31H292.316V0.199998H301.116V26.6H323.116V31ZM359.554 31H328.754V0.199998H359.554V4.6H337.553V13.4H355.154V17.8H337.553V26.6H359.554V31ZM395.991 26.6H391.591V31H369.591V26.6H365.191V22.2H373.991V26.6H387.191V17.8H369.591V13.4H365.191V4.6H369.591V0.199998H387.191V4.6H391.591V9H382.791V4.6H373.991V13.4H391.591V17.8H395.991V26.6Z" fill="white"/>
</svg>
